<svg width="327" height="48" viewBox="0 0 327 48" fill="none" xmlns="http://www.w3.org/2000/svg">
<g clip-path="url(#clip0_162_115)">
<path d="M34.3645 36.4703V36.2624L27.6061 28.542C27.1901 28.0482 27.4501 27.2943 28.0739 27.1644C29.2957 26.9304 30.2834 26.4885 31.1672 25.7867C33.0128 24.305 34.0526 21.9396 34.0526 19.7561C34.0526 17.5725 33.0648 15.2331 31.3492 13.8294C29.3476 12.2438 26.4883 11.7759 24.3308 11.7759H12.4255C11.9577 11.7759 11.5938 12.1398 11.5938 12.6077V16.1949C11.5938 16.4028 11.6717 16.5848 11.8017 16.7407L15.0249 20.4579C15.5448 21.0558 16.5066 20.6918 16.5066 19.912V16.7927C16.5066 16.3248 16.8705 15.9609 17.3384 15.9609H24.3568C27.0342 15.9609 29.1917 16.9227 29.1917 19.7301C29.1917 22.3295 27.58 23.4732 24.7207 23.4732H19.4179C18.6901 23.4732 18.3002 24.331 18.7941 24.8509L28.8538 36.4703H34.3645Z" fill="#646464"/>
<path d="M13.0754 24.8251C12.5555 24.2273 11.5938 24.5912 11.5938 25.371V31.5056V35.6125C11.5938 36.0805 11.9577 36.4444 12.4255 36.4444H21.2895C22.0173 36.4444 22.4073 35.5868 21.9134 35.0668L16.9225 29.2961L13.0754 24.8251Z" fill="#1DD3B0"/>
<path d="M0 0.931034V2.25C0 2.4569 0.077982 2.68966 0.233946 2.84483L3.27525 6.38792C3.84713 7.03447 4.91287 6.64655 4.91287 5.79311C4.91287 5.27587 5.32878 4.86208 5.84866 4.86208H40.1347C40.6546 4.86208 41.0707 5.27587 41.0707 5.79311V42.2068C41.0707 42.7242 40.6546 43.1379 40.1347 43.1379H34.702H29.1133H5.82265C5.30276 43.1379 4.88689 42.7242 4.88689 42.2068V15.6466C4.88689 15.4138 4.80889 15.2069 4.65293 15.0517L1.63762 11.5345C1.06576 10.8879 0 11.2759 0 12.1293V43.1121V47.0689C0 47.5864 0.415906 48 0.935785 48H33.3244H38.8609H45.0215C45.5414 48 45.9575 47.5864 45.9575 47.0689V43.1121V4.88792V0.931034C45.9575 0.413792 45.5414 0 45.0215 0H0.935785C0.415906 0 0 0.413792 0 0.931034Z" fill="#646464"/>
<path d="M63.8828 13.0591H72.2828C74.7629 13.0591 76.5947 13.5231 77.7788 14.4511C78.9629 15.3791 79.5548 16.7311 79.5548 18.5071C79.5548 19.6911 79.2908 20.6591 78.7628 21.4111C78.2348 22.1631 77.4587 22.7471 76.4348 23.1631L80.6588 30.1951H76.2668L72.6428 23.9791C72.5468 23.9791 72.4349 23.9791 72.3068 23.9791C72.1949 23.9791 72.0509 23.9791 71.8748 23.9791H67.7708V30.1951H63.8828V13.0591ZM72.0428 20.8831C73.2587 20.8831 74.1467 20.6991 74.7068 20.3311C75.2828 19.9471 75.5708 19.3391 75.5708 18.5071C75.5708 17.6591 75.2987 17.0591 74.7548 16.7071C74.2268 16.3391 73.3307 16.1551 72.0668 16.1551H67.7708V20.8831H72.0428Z" fill="#646464"/>
<path d="M101.532 30.1942H98.0524V28.5382C97.3483 29.2262 96.5803 29.7302 95.7484 30.0502C94.9324 30.3702 93.9724 30.5302 92.8684 30.5302C91.2364 30.5302 89.9722 30.2022 89.0764 29.5462C88.1803 28.8902 87.7324 27.9382 87.7324 26.6902C87.7324 25.3302 88.3243 24.3142 89.5084 23.6422C90.6922 22.9702 92.5084 22.6022 94.9564 22.5382L97.9564 22.4662V21.9862C97.9564 20.5622 96.9964 19.8502 95.0764 19.8502C93.3004 19.8502 92.2363 20.3302 91.8844 21.2902L88.5004 21.0022C89.0122 18.5222 91.2523 17.2822 95.2204 17.2822C99.4282 17.2822 101.532 18.9462 101.532 22.2742V30.1942ZM93.9004 27.9622C94.5883 27.9622 95.2363 27.8582 95.8444 27.6502C96.4684 27.4262 96.9724 27.1062 97.3564 26.6902C97.7563 26.2582 97.9564 25.7462 97.9564 25.1542V24.6982L95.2204 24.7702C93.9082 24.8182 92.9563 24.9702 92.3644 25.2262C91.7722 25.4822 91.4764 25.8822 91.4764 26.4262C91.4764 27.4502 92.2843 27.9622 93.9004 27.9622Z" fill="#646464"/>
<path d="M124.515 30.194H120.603V28.25C119.947 28.986 119.211 29.562 118.395 29.978C117.579 30.378 116.635 30.578 115.563 30.578C114.011 30.578 112.795 30.17 111.915 29.354C111.051 28.522 110.619 27.354 110.619 25.85V17.666H114.603V25.106C114.603 26.706 115.411 27.506 117.027 27.506C117.971 27.506 118.819 27.17 119.571 26.498C120.195 25.954 120.507 25.29 120.507 24.506V17.666H124.515V30.194Z" fill="#646464"/>
<path d="M133.75 13.0591H137.734V30.1951H133.75V13.0591Z" fill="#646464"/>
<path d="M154.664 30.866C154.136 31.954 153.624 32.81 153.128 33.434C152.648 34.058 152.112 34.49 151.52 34.73C150.928 34.986 150.208 35.114 149.36 35.114C148.8 35.114 148.288 35.074 147.824 34.994C147.36 34.914 146.864 34.778 146.336 34.586L146.912 31.874C147.216 31.97 147.504 32.034 147.776 32.066C148.064 32.114 148.36 32.138 148.664 32.138C149.24 32.138 149.712 32.01 150.08 31.754C150.448 31.498 150.784 31.058 151.088 30.434L151.592 29.402L145.424 17.666H149.768L153.488 25.874L156.896 17.666H161.072L154.664 30.866Z" fill="#646464"/>
<path d="M168.777 17.6662H172.689V19.5862C173.378 18.8182 174.137 18.2422 174.969 17.8582C175.802 17.4742 176.738 17.2822 177.777 17.2822C179.409 17.2822 180.665 17.6982 181.545 18.5302C182.426 19.3462 182.865 20.5222 182.865 22.0582V30.1942H178.881V22.8022C178.881 21.9542 178.673 21.3382 178.257 20.9542C177.857 20.5542 177.209 20.3542 176.313 20.3542C175.833 20.3542 175.361 20.4422 174.897 20.6182C174.434 20.7942 174.033 21.0422 173.697 21.3622C173.073 21.9382 172.761 22.6182 172.761 23.4022V30.1942H168.777V17.6662Z" fill="#646464"/>
<path d="M204.678 13.0591H208.902V26.7151H219.174L218.67 30.1951H204.678V13.0591Z" fill="#646464"/>
<path d="M240.316 30.1942H236.836V28.5382C236.132 29.2262 235.364 29.7302 234.532 30.0502C233.716 30.3702 232.756 30.5302 231.652 30.5302C230.02 30.5302 228.756 30.2022 227.86 29.5462C226.964 28.8902 226.516 27.9382 226.516 26.6902C226.516 25.3302 227.108 24.3142 228.292 23.6422C229.476 22.9702 231.292 22.6022 233.74 22.5382L236.74 22.4662V21.9862C236.74 20.5622 235.78 19.8502 233.86 19.8502C232.084 19.8502 231.02 20.3302 230.668 21.2902L227.284 21.0022C227.796 18.5222 230.036 17.2822 234.004 17.2822C238.212 17.2822 240.316 18.9462 240.316 22.2742V30.1942ZM232.684 27.9622C233.372 27.9622 234.02 27.8582 234.628 27.6502C235.252 27.4262 235.756 27.1062 236.14 26.6902C236.54 26.2582 236.74 25.7462 236.74 25.1542V24.6982L234.004 24.7702C232.692 24.8182 231.74 24.9702 231.148 25.2262C230.556 25.4822 230.26 25.8822 230.26 26.4262C230.26 27.4502 231.068 27.9622 232.684 27.9622Z" fill="#646464"/>
<path d="M263.991 30.1951H260.079V28.3471C259.503 29.0831 258.783 29.6431 257.919 30.0271C257.055 30.3951 256.087 30.5791 255.015 30.5791C253.783 30.5791 252.703 30.3071 251.775 29.7631C250.863 29.2191 250.151 28.4591 249.639 27.4831C249.127 26.5071 248.871 25.3711 248.871 24.0751C248.871 22.7471 249.135 21.5791 249.663 20.5711C250.191 19.5471 250.943 18.7471 251.919 18.1711C252.895 17.5791 254.055 17.2831 255.399 17.2831C257.399 17.2831 258.935 17.9391 260.007 19.2511V13.0591H263.991V30.1951ZM253.839 26.6431C254.431 27.2671 255.287 27.5791 256.407 27.5791C257.111 27.5791 257.735 27.4351 258.279 27.1471C258.823 26.8591 259.247 26.4671 259.551 25.9711C259.871 25.4591 260.031 24.8911 260.031 24.2671V23.6671C260.031 22.6591 259.711 21.8431 259.071 21.2191C258.447 20.5951 257.591 20.2831 256.503 20.2831C255.335 20.2831 254.447 20.6031 253.839 21.2431C253.247 21.8671 252.951 22.7791 252.951 23.9791C252.951 25.1311 253.247 26.0191 253.839 26.6431Z" fill="#646464"/>
<path d="M279.878 30.5782C277.606 30.5782 275.83 30.0102 274.55 28.8742C273.286 27.7222 272.654 26.1222 272.654 24.0742C272.654 22.6982 272.958 21.5062 273.566 20.4982C274.19 19.4742 275.054 18.6822 276.158 18.1222C277.262 17.5622 278.542 17.2822 279.998 17.2822C282.254 17.2822 283.99 17.8502 285.206 18.9862C286.438 20.1062 287.054 21.6902 287.054 23.7382V24.8422H276.302C276.414 25.9142 276.79 26.7142 277.43 27.2422C278.07 27.7702 278.934 28.0342 280.022 28.0342C281.83 28.0342 282.942 27.4822 283.358 26.3782H286.886C286.23 29.1782 283.894 30.5782 279.878 30.5782ZM277.43 20.5942C276.918 21.1062 276.582 21.7462 276.422 22.5142H283.454C283.374 21.5702 283.062 20.8822 282.518 20.4502C281.974 20.0182 281.126 19.8022 279.974 19.8022C278.806 19.8022 277.958 20.0662 277.43 20.5942Z" fill="#646464"/>
<path d="M295.75 17.6667H299.662V19.6347C300.862 18.1787 302.358 17.4507 304.15 17.4507C304.374 17.4507 304.606 17.4667 304.846 17.4987C305.086 17.5147 305.334 17.5387 305.59 17.5707L305.134 20.7387C304.574 20.6587 304.086 20.6187 303.67 20.6187C302.454 20.6187 301.486 20.9227 300.766 21.5307C300.078 22.1227 299.734 22.8187 299.734 23.6187V30.1947H295.75V17.6667Z" fill="#646464"/>
<path d="M326.614 30.1942H323.134V28.5382C322.43 29.2262 321.662 29.7302 320.83 30.0502C320.014 30.3702 319.054 30.5302 317.95 30.5302C316.318 30.5302 315.054 30.2022 314.158 29.5462C313.262 28.8902 312.814 27.9382 312.814 26.6902C312.814 25.3302 313.406 24.3142 314.59 23.6422C315.774 22.9702 317.59 22.6022 320.038 22.5382L323.038 22.4662V21.9862C323.038 20.5622 322.078 19.8502 320.158 19.8502C318.382 19.8502 317.318 20.3302 316.966 21.2902L313.582 21.0022C314.094 18.5222 316.334 17.2822 320.302 17.2822C324.51 17.2822 326.614 18.9462 326.614 22.2742V30.1942ZM318.982 27.9622C319.67 27.9622 320.318 27.8582 320.926 27.6502C321.55 27.4262 322.054 27.1062 322.438 26.6902C322.838 26.2582 323.038 25.7462 323.038 25.1542V24.6982L320.302 24.7702C318.99 24.8182 318.038 24.9702 317.446 25.2262C316.854 25.4822 316.558 25.8822 316.558 26.4262C316.558 27.4502 317.366 27.9622 318.982 27.9622Z" fill="#646464"/>
</g>
<defs>
<clipPath id="clip0_162_115">
<rect width="326.824" height="48" fill="white"/>
</clipPath>
</defs>
</svg>
